<svg width="128" height="128" xmlns="http://www.w3.org/2000/svg">

 <g>
  <title>background</title>
  <rect fill="none" id="canvas_background" height="402" width="582" y="-1" x="-1"/>
 </g>
 <g>
  <title>Layer 1</title>
  <path id="svg_3" fill="#00ff88" d="m64,0c-24.301,0 -44,19.699 -44,44s44,84 44,84s44,-59.699 44,-84s-19.699,-44 -44,-44zm-36,44c0,-19.852 16.148,-36 36,-36s36,16.148 36,36c0,13.828 -20.008,47.211 -36,70.238c-15.992,-23.027 -36,-56.41 -36,-70.238zm36,-20c-11.047,0 -20,8.953 -20,20s8.953,20 20,20s20,-8.953 20,-20s-8.953,-20 -20,-20zm0,32c-6.617,0 -12,-5.383 -12,-12s5.383,-12 12,-12s12,5.383 12,12s-5.383,12 -12,12z"/>
 </g>
</svg>